<svg width="195" version="1.1" xmlns="http://www.w3.org/2000/svg" xmlns:xlink="http://www.w3.org/1999/xlink" x="0px" y="0px" viewBox="0 0 195 44" style="enable-background:new 0 0 195 44;" xml:space="preserve"><style type="text/css">
.st0{fill:#FF5200;}
.st1{fill:#FFFFFF;}
.st2{fill:#BD0C34;}
.st3{fill:url(#SVGID_1_);}
.st4{fill:url(#SVGID_2_);}
.st5{opacity:0.55;fill:#F5F197;enable-background:new    ;}
.st6{opacity:0.28;fill:#3DFFFF;enable-background:new    ;}
.st7{fill:#DACFE5;}
.st8{fill:url(#SVGID_3_);}
.st9{fill:#B89DC2;}
.st10{opacity:0.47;fill:#FFFFFF;enable-background:new    ;}
.st11{fill:url(#SVGID_4_);}
.st12{fill:url(#SVGID_5_);}
.st13{fill:#D9CFE4;}
</style><g><g><path class="st0" d="M60.3,19.1c3.1,0,4.2,2.1,4.4,2.5h2.8c-0.3-1.1-1.8-5.1-7.3-5.1c-4.3,0-7.7,3.5-7.7,8s3.4,8,7.8,8
c5.4,0,7.1-4,7.2-5.1h-2.8c-0.3,0.6-1.4,2.5-4.5,2.5c-2.8,0-4.9-2.4-4.9-5.4C55.5,21.5,57.5,19.1,60.3,19.1z"></path><polygon class="st0" points="73.7,28.4 73.7,16.9 70.9,16.9 70.9,32.1 73.7,32.1 82.5,20.5 82.5,32.1 85.4,32.1 85.4,16.9
82.5,16.9 		"></polygon><polygon class="st0" points="87.9,19.4 94.1,19.4 94.1,32.1 96.9,32.1 96.9,19.4 103.1,19.4 103.1,16.9 87.9,16.9 		"></polygon><polygon class="st0" points="108.4,28.4 108.4,16.9 105.6,16.9 105.6,32.1 108.4,32.1 117.2,20.5 117.2,32.1 120.1,32.1
120.1,16.9 117.2,16.9 		"></polygon><path class="st0" d="M125.9,25.3c-0.4,3.5-0.8,4.5-2.9,4.5h-0.4v2.5h0.8c3.3,0,4.4-2.2,4.9-6.8l0.6-6.1h6.3v12.7h2.8V16.9h-11.3
L125.9,25.3z"></path><polygon class="st0" points="145.3,28.4 145.3,16.9 142.5,16.9 142.5,32.1 145.3,32.1 154.1,20.5 154.1,32.1 156.9,32.1
156.9,16.9 154.1,16.9 		"></polygon><polygon class="st0" points="172.7,23.1 164.1,23.1 164.1,16.9 161.3,16.9 161.3,32.1 164.1,32.1 164.1,25.7 172.7,25.7
172.7,32.1 175.5,32.1 175.5,16.9 172.7,16.9 		"></polygon><polygon class="st0" points="185.6,24.2 194.6,16.9 190.6,16.9 182.6,23.5 182.6,16.9 179.9,16.9 179.9,32.1 182.6,32.1
182.6,25.2 191.1,32.1 195,32.1 		"></polygon></g><path class="st0" d="M37,36.9l-16.7,3.2c-4.3,0.8-8.3-2.5-8.3-6.8V15c0-4.4,3.9-7.7,8.3-6.8l11.1,2.1l5.6,1
c2.4,0.5,4.2,2.6,4.2,5.1v15.3C41.4,34.3,39.6,36.4,37,36.9"></path><path class="st1" d="M21.2,30.4v-6.3v-0.1v-5.8c0-0.6,0.5-1,1.1-0.9l12.3,1.8v-2.7l-11.7-1.8c-2.3-0.4-4.3,1.4-4.3,3.7v5.8v0.1v6.2
c0,2.3,2.1,4,4.3,3.7l11.7-1.9v-2.7l-12.3,1.9C21.7,31.5,21.2,31,21.2,30.4"></path><g><path class="st0" d="M53.8,37.5h3.3V42h-0.8v-3.7h-1.9l-0.2,1.8c-0.1,1.4-0.5,2-1.4,2h-0.2v-0.7h0.1c0.7,0,0.8-0.3,0.8-1.3
L53.8,37.5z"></path><polygon class="st0" points="60,41.8 58,37.5 58.9,37.5 60.4,40.9 61.9,37.5 62.8,37.5 59.8,44 59,44 		"></polygon><path class="st0" d="M66.8,40.3c0,0-0.6,0.1-1.3,0.1c-1.2,0-1.9-0.5-1.9-1.7v-1.2h0.8v1.1c0,0.7,0.2,1,1,1c0.8,0,1.3-0.1,1.3-0.1
v-2.1h0.8v4.5h-0.8V40.3z"></path><polygon class="st0" points="69.8,37.5 69.8,41.2 71.9,41.2 71.9,37.5 72.7,37.5 72.7,41.2 74.8,41.2 74.8,37.5 75.6,37.5
75.6,41.9 69,41.9 69,37.5 		"></polygon><path class="st0" d="M81.3,39.9h-3.8c0,0.8,0.7,1.5,1.5,1.5c0.9,0,1.2-0.5,1.3-0.7h0.8c-0.1,0.4-0.7,1.4-2.2,1.4
c-1.4,0-2.3-1-2.3-2.3c0-1.3,0.9-2.3,2.3-2.3C80.4,37.5,81.3,38.4,81.3,39.9 M77.7,39.1h2.7c-0.2-0.7-0.7-1-1.4-1
C78.3,38.1,77.8,38.5,77.7,39.1"></path><path class="st0" d="M86.7,39.9h-3.8c0,0.8,0.7,1.5,1.5,1.5c0.9,0,1.2-0.5,1.3-0.7h0.8c-0.1,0.4-0.7,1.4-2.2,1.4
c-1.4,0-2.3-1-2.3-2.3c0-1.3,0.9-2.3,2.3-2.3C85.7,37.5,86.7,38.4,86.7,39.9 M83,39.1h2.7c-0.2-0.7-0.7-1-1.4-1
C83.7,38.1,83.2,38.5,83,39.1"></path><path class="st0" d="M89.2,43.3v-2.1h0.6c0.3-0.4,0.4-0.9,0.6-2.1l0.2-1.7h3.3v3.7h0.8v2.1h-0.8V42h-3.9v1.3H89.2z M93,38.3h-1.8
L91,39.2c-0.1,1-0.3,1.6-0.5,2H93V38.3z"></path><path class="st0" d="M96.3,37.5h3.3V42h-0.8v-3.7h-1.9l-0.2,1.8c-0.1,1.4-0.5,2-1.4,2H95v-0.7h0.1c0.7,0,0.8-0.3,0.8-1.3
L96.3,37.5z"></path><path class="st0" d="M104,41.9v-1.6h-1.3l-1.1,1.6h-0.9l1.2-1.7c-0.8-0.2-1-0.7-1-1.3c0-0.7,0.5-1.4,1.6-1.4h2.4V42L104,41.9
L104,41.9z M104,39.6v-1.3h-1.5c-0.6,0-0.8,0.2-0.8,0.7c0,0.5,0.3,0.7,0.8,0.7L104,39.6L104,39.6z"></path><polygon class="st0" points="109.7,38.3 108,38.3 108,37.5 112.4,37.5 112.4,38.3 110.6,38.3 110.6,41.9 109.7,41.9 		"></polygon><path class="st0" d="M117.4,39.9h-3.8c0,0.8,0.7,1.5,1.5,1.5c0.9,0,1.2-0.5,1.3-0.7h0.8c-0.1,0.4-0.7,1.4-2.2,1.4
c-1.4,0-2.3-1-2.3-2.3c0-1.3,0.9-2.3,2.3-2.3S117.4,38.4,117.4,39.9 M113.8,39.1h2.7c-0.2-0.7-0.7-1-1.4-1
C114.4,38.1,114,38.5,113.8,39.1"></path><path class="st0" d="M123,39.9c0,1.3-0.9,2.2-2.3,2.2c-1.4,0-2.3-0.9-2.3-2.4c0-0.5,0-0.7,0.1-1.3c0.1-1.5,0.8-2.4,2.4-2.7
l1.8-0.3v0.7l-1.8,0.3c-1.1,0.2-1.6,0.7-1.7,2c0.3-0.5,0.8-0.7,1.6-0.7C122,37.6,123,38.5,123,39.9 M122.1,39.9
c0-0.8-0.5-1.5-1.5-1.5c-1,0-1.5,0.7-1.5,1.5s0.5,1.5,1.5,1.5C121.7,41.3,122.1,40.6,122.1,39.9"></path><path class="st0" d="M127.1,41.9v-1.6h-1.3l-1.1,1.6h-0.9l1.2-1.7c-0.8-0.2-1-0.7-1-1.3c0-0.7,0.5-1.4,1.6-1.4h2.4V42L127.1,41.9
L127.1,41.9z M127.1,39.6v-1.3h-1.5c-0.6,0-0.8,0.2-0.8,0.7c0,0.5,0.3,0.7,0.8,0.7L127.1,39.6L127.1,39.6z"></path></g><path class="st2" d="M11.1,18.9c-0.8-2-1.5-3.9-1.9-6c-0.4-1.9-0.5-3.8-0.3-5.8C9,6.2,9.2,5.4,9.6,4.5L9.5,4.2
C8.3,5.7,7.4,7.7,7.1,8.8c-1.6,4.8-1.9,10.9-2.9,12.8c0.3,0.5,0.7,2,1.2,1.8c1.6-0.7,4.6-2.2,6.4-3.6
C11.6,19.3,11.3,19.3,11.1,18.9z"></path><linearGradient id="SVGID_1_" gradientUnits="userSpaceOnUse" x1="-278.6382" y1="197.948" x2="-274.5131" y2="199.7771" gradientTransform="matrix(0.998 -6.363215e-02 -6.363215e-02 -0.998 294.9718 196.2398)"><stop offset="0.4017" style="stop-color:#FF1C30"></stop><stop offset="0.998" style="stop-color:#E30040"></stop></linearGradient><path class="st3" d="M7.1,8.8c-1.5,4.7-1.8,10.6-2.8,12.6c0.1,0.2,0.2,0.5,0.4,0.7c0.4,0,0.7-0.2,0.8-0.5c0.2-0.3,0.5-0.5,0.6-0.8
C6.8,17.1,6.9,12.8,7.1,8.8z"></path><linearGradient id="SVGID_2_" gradientUnits="userSpaceOnUse" x1="-269.2398" y1="204.5727" x2="-257.6966" y2="209.691" gradientTransform="matrix(0.998 -6.363215e-02 -6.363215e-02 -0.998 294.9718 196.2398)"><stop offset="0.4017" style="stop-color:#FF1C30"></stop><stop offset="0.998" style="stop-color:#E30040"></stop></linearGradient><path class="st4" d="M31,7.3h-0.2C30.9,7.3,31,7.3,31,7.3l-0.4-0.2c-1.7-2.8-5.7-5.2-9.8-6.2c-1.3-0.3-6.1-1.3-7.3-0.8
C12.1,0.6,10.5,2.6,9.7,4C8.8,5.2,8.3,7.2,8.3,8.8c-0.2,1.9,0.1,5.5,0.9,7c0.8,1.5,1.8,1.2,3,2.4c0.1,0.1,0.2,0.2,0.3,0.4
c1.2-1.9,2.3-3.7,3.8-5.1c2.3-2,4.1-4.5,7-5.4c2.5-0.8,5.3-0.3,8,0.4C31.6,8,31.3,7.4,31,7.3z"></path><path class="st5" d="M9.7,16.5c0.8-1.1,1.5-2.2,2-3.4c0.6-1.6-0.5-0.1-0.8-1.8C10.1,7,10.4,3.6,12.6,0.6c-1.1,0.8-2.3,2.3-3,3.4
C8.7,5.2,8.3,7.2,8.2,8.8c-0.2,1.9,0.1,5.5,0.9,7C9.3,16,9.5,16.3,9.7,16.5z"></path><path class="st6" d="M31,7.3h-0.2C30.9,7.3,31,7.3,31,7.3l-0.4-0.2c-1.7-2.8-5.7-5.2-9.8-6.2c-1-0.3-4.6-1-6.5-0.9
c1.4,0.4,2.8,1.2,4,2.1c1.9,1.4,3.5,3.1,5.3,4.3c0.7,0.5,1.3,0.8,2.1,1.1c1.9-0.1,3.8,0.4,5.6,0.7C31.6,8,31.3,7.4,31,7.3z"></path><path class="st7" d="M28.1,10.3c0.1-0.1,0.3-0.1,0.4-0.1c0.7-0.1,1.3-0.2,1.9-0.4c0.2-0.1,0.4-0.2,0.6-0.3c0.2-0.2,0.5-0.4,0.8-0.6
c0.1-0.6,0.1-1-0.1-1.3c-0.6-0.8-1.4-1.5-2.3-2C26,4,22,3.7,18.6,4.7s-6.7,3.4-8.5,6.5c-0.5,0.7-0.8,1.5-0.8,2.3
c-0.5,4.2,0.1,2.7,0.9,3.8c0.7,2.2,1.5,2.3,2.1,2.2c0.7-1.7,1.7-3.3,3-4.5c0.8-0.7,1.6-1.5,2.7-2.2C22.2,10.7,25.7,10.2,28.1,10.3z
"></path><g><radialGradient id="SVGID_3_" cx="-357.0008" cy="48.559" r="5.8854" gradientTransform="matrix(0.8232 -0.5664 -0.5678 -0.8211 323.6594 -140.0263)" gradientUnits="userSpaceOnUse"><stop offset="0.227" style="stop-color:#F1EDF5"></stop><stop offset="0.7331" style="stop-color:#DACFE5"></stop><stop offset="1" style="stop-color:#C9B9DC"></stop></radialGradient><path class="st8" d="M0.8,22.5C0.7,22.9,0,23,0,23.5c0,0.7,0.5,0.7,0.5,0.7s-0.6,1-0.3,1.7c0.2,0.5,0.8,0.9,1.2,0.4
c-0.8,1,0.8,2.2,1.6,1.2c-0.1,1.2,1.8,1.3,1.9,0.2c1.1,0.9,2.7-0.5,2.1-1.7c1.5,0.5,1.2-1.8,0.4-2.3c0.7,0,0.6-1.1-0.1-1
c0.3-0.5,0.2-1-0.2-1.4c-0.6-0.6-0.9,0-1.4-0.2c-0.3-0.1-2.1-2-2.2-0.3c-0.3-0.3-0.8-0.7-1.2-0.4c-0.2,0.2-0.5,0.6-0.1,0.7
C1.1,20.7,0.1,21.8,0.8,22.5z"></path><path class="st9" d="M7,21.3c0-0.1-0.1-0.1-0.1-0.2l0,0c-0.2-0.2-0.3-0.2-0.4-0.3c-0.1,0-0.1,0-0.2,0c-0.1,0-0.2,0-0.2,0.1
c0,0,0,0-0.1,0S5.9,21,5.8,21c-0.2,0-0.3,0-0.5-0.1c0,0,0.1,0.2,0.3,0.2c0.2,0.1,0.4,0,0.7-0.1c0.1,0,0.3,0,0.4,0.1
c0.1,0.1,0.2,0.1,0.2,0.2c0.1,0.1,0.1,0.2,0.1,0.3C7,21.7,7,22,6.9,22.2l0,0l0,0v0.1c0,0.1-0.1,0.1-0.1,0.2l0,0l0,0v0.1l0,0
l0.1,0.1l0,0l0,0l0,0l0,0H7h0.1h0.1l0,0l0,0l0,0l0,0c0.1,0,0.1,0,0.1,0.1c0,0,0,0,0,0.1s0,0.2,0,0.3l0,0l0,0l0,0l0,0l0,0l0,0H7.2
c-0.1,0-0.2,0-0.3,0c0,0,0,0-0.1,0c0,0,0,0-0.1,0.1v0.1l0,0c0.1,0.1,0.2,0.1,0.3,0.2c0.1,0,0.1,0.1,0.1,0.1v0.1l0.1,0.1l0.1,0.1
c0.1,0.2,0.2,0.4,0.2,0.6c0,0.2,0.1,0.4,0,0.6c0,0.2-0.1,0.4-0.2,0.4l0,0c-0.1,0-0.1,0.1-0.2,0H7c0,0-0.1,0-0.2,0
c-0.1,0-0.1,0-0.2-0.1l0,0.3H6.6l0,0v0.1c0,0.2,0.1,0.4,0.1,0.5l0.1,0.2v0.1c0,0.1,0,0.2,0,0.3c0,0.2-0.1,0.4-0.2,0.6
c-0.1,0.2-0.2,0.3-0.4,0.4s-0.3,0.2-0.5,0.2s-0.3,0-0.5,0c-0.1,0-0.2-0.1-0.2-0.1H5c0,0-0.1,0-0.1-0.1l-0.1-0.1H4.7l0,0l0,0H4.6
l0,0l-0.1,0.1l0,0c0,0.1,0,0.2,0,0.3V28v0.1c0,0.1-0.1,0.1-0.1,0.2c0,0.1-0.1,0.1-0.1,0.1s-0.1,0.1-0.2,0.1
c-0.2,0.1-0.3,0.1-0.5,0c0,0,0,0-0.1,0c0,0,0,0-0.1,0c0,0,0,0-0.1,0l0,0c0,0,0,0-0.1,0l0,0l0,0c0,0-0.1,0-0.1-0.1
c-0.3-0.2-0.4-0.4-0.5-0.7l0,0c0.2,0,0.2,0.2,0.3,0.3c0.2,0.2,0.4,0.4,0.7,0.4s0.6,0,0.8-0.2c0.2-0.1,0.3-0.3,0.4-0.6
c0.3,0.2,0.6,0.3,0.8,0.3c0.3,0,0.6-0.1,0.8-0.3c0.3-0.2,0.5-0.5,0.6-0.7s0.1-0.6-0.1-0.9c0.3,0.1,0.5,0,0.7-0.1
c0.1-0.1,0.2-0.2,0.3-0.4c0.1-0.3,0.1-0.6,0-0.8c-0.1-0.3-0.2-0.6-0.4-0.8c-0.1-0.1-0.2-0.2-0.2-0.3c0.1,0,0.1,0,0.2-0.1
c0.1-0.1,0.2-0.3,0.2-0.4c0-0.2,0-0.3-0.1-0.5c-0.1-0.1-0.3-0.2-0.5-0.2C7.4,22.1,7.3,21.6,7,21.3z"></path></g><path class="st10" d="M8.7,7.8c0.1-0.2,0.1-0.5,0.1-0.7s0.1-0.5,0.1-0.7C9,6,9.1,5.6,9.3,5.2c0.3-0.8,0.8-1.6,1.3-2.3
c0.3-0.4,0.7-0.8,1-1.1c-0.2,0.5-0.5,1-0.7,1.5c-0.3,0.5-0.5,1-0.8,1.5C9.8,5.8,9.3,6.8,8.7,7.8z"></path><linearGradient id="SVGID_4_" gradientUnits="userSpaceOnUse" x1="-281.2183" y1="193.6241" x2="-279.1946" y2="186.6114" gradientTransform="matrix(0.998 -6.363215e-02 -6.363215e-02 -0.998 294.9718 196.2398)"><stop offset="0" style="stop-color:#FFFFFF"></stop><stop offset="1" style="stop-color:#EBE1EF"></stop></linearGradient><path class="st11" d="M1.2,25.8C1.2,25.8,1.2,25.8,1.2,25.8c-0.1-0.4,0.1-0.7,0.3-0.8c0.1-0.1,0.2-0.1,0.3-0.2c0-0.1,0-0.2,0-0.3
c-0.1-0.1-0.1-0.3,0-0.5c0.2-0.6,0.7-0.7,1.1-0.8c-0.1-0.2,0-0.4,0-0.6c0-0.1,0-0.1,0-0.2c0.1-0.2,0.4-0.4,0.6-0.4
c0.1,0,0.3-0.1,0.4-0.1c0-0.3,0-0.6,0.3-0.7C4.4,21,4.8,21,5.1,21.1l0,0c0-0.1,0-0.2,0-0.2c-0.7-0.5-1.7-1.2-1.7,0
c-0.3-0.3-0.8-0.7-1.1-0.4c-0.2,0.2-0.5,0.6-0.1,0.7C1.3,20.9,0.4,22,1,22.7c-0.1,0.4-0.8,0.6-0.8,0.9c0,0.5,0.3,0.6,0.4,0.7
c0,0.1-0.1,0.3-0.1,0.4c0,0.1-0.1,0.2-0.1,0.3c0,0.1,0.1,0.2,0.1,0.3C0.6,25.5,0.8,25.8,1.2,25.8C1.2,25.9,1.2,25.8,1.2,25.8z"></path><path class="st7" d="M29.5,8.8"></path><path class="st7" d="M31.6,7.8c0,0,1.7,3.2-2.9,2.4"></path><path class="st7" d="M31.9,8.3c0,0,0.8,2.2-0.9,2.2s-2-0.2-2.8-0.2c-0.8,0,1.3-2.7,1.3-2.7L31.8,8"></path><radialGradient id="SVGID_5_" cx="-267.2005" cy="200.2928" r="13.9786" gradientTransform="matrix(0.998 -6.347289e-02 -6.363215e-02 -0.9955 294.9718 195.8029)" gradientUnits="userSpaceOnUse"><stop offset="0" style="stop-color:#FFFFFF"></stop><stop offset="0.7839" style="stop-color:#EBE1EF"></stop></radialGradient><path class="st12" d="M12.2,19.8c0.7-1.7,1.7-3.3,3-4.5c0.8-0.7,1.6-1.5,2.7-2.2c3.1-1.8,6.8-2.7,10.2-2.9c0,0,0,0,0.1,0
c0.8-1.3-2.2-3.1-5-3.1c-1.3-1.8-2.1-2.5-3.9-2.5c-0.3,0.1-0.5,0.1-0.8,0.2c-3.6,1-6.7,3.4-8.5,6.5c-0.3,0.5-0.4,1.4,1.5,2.2
c-1.2,2.6-1,4.7-0.5,5.7C11.5,19.8,11.9,19.8,12.2,19.8z"></path><g><path class="st13" d="M11.6,13.8c-0.4,0.7-0.7,1.3-0.8,1.8c-0.1,0.3-0.1,0.5-0.2,0.6c0,0.2-0.1,0.2-0.1,0.2s-0.1-0.1-0.1-0.3
c0-0.2,0-0.4,0-0.7c0.1-0.6,0.3-1.3,0.8-2c0.2-0.4,0.5-0.7,0.8-0.9c0.3-0.3,0.5-0.5,0.8-0.6c0.5-0.3,0.8-0.4,0.8-0.4
C13.6,11.8,12.4,12.5,11.6,13.8z"></path></g></g></svg>